<svg width="48" height="50" viewBox="0 0 48 50" fill="none" xmlns="http://www.w3.org/2000/svg" xmlns:xlink="http://www.w3.org/1999/xlink">
<path d="M32.051,17.612C32.051,19.923 31.133,22.14 29.498,23.775C27.864,25.41 25.647,26.328 23.335,26.328C21.024,26.328 18.807,25.41 17.172,23.775C15.537,22.14 14.619,19.923 14.619,17.612C14.619,15.3 15.537,13.083 17.172,11.449C18.807,9.814 21.024,8.896 23.335,8.896C25.647,8.896 27.864,9.814 29.498,11.449C31.133,13.083 32.051,15.3 32.051,17.612ZM27.693,17.612C27.693,18.768 27.234,19.876 26.417,20.693C25.6,21.511 24.491,21.97 23.335,21.97C22.179,21.97 21.071,21.511 20.254,20.693C19.436,19.876 18.977,18.768 18.977,17.612C18.977,16.456 19.436,15.347 20.254,14.53C21.071,13.713 22.179,13.254 23.335,13.254C24.491,13.254 25.6,13.713 26.417,14.53C27.234,15.347 27.693,16.456 27.693,17.612Z" clip-rule="evenodd" fill-rule="evenodd" fill="#000000"/>
<path d="M23.331,0.179C10.093,0.179 -0.639,10.911 -0.639,24.149C-0.639,37.386 10.093,48.118 23.331,48.118C36.568,48.118 47.3,37.386 47.3,24.149C47.3,10.911 36.568,0.179 23.331,0.179ZM3.719,24.149C3.719,28.703 5.273,32.895 7.877,36.225C9.706,33.823 12.065,31.877 14.77,30.538C17.475,29.199 20.454,28.504 23.472,28.507C26.452,28.504 29.392,29.181 32.071,30.487C34.749,31.793 37.093,33.693 38.926,36.042C40.814,33.565 42.085,30.675 42.634,27.61C43.184,24.545 42.995,21.393 42.084,18.416C41.174,15.438 39.567,12.72 37.397,10.486C35.228,8.253 32.557,6.568 29.607,5.571C26.657,4.575 23.512,4.295 20.432,4.755C17.352,5.215 14.427,6.402 11.897,8.218C9.367,10.033 7.306,12.425 5.884,15.195C4.462,17.966 3.72,21.035 3.719,24.149ZM23.331,43.76C18.829,43.767 14.463,42.218 10.971,39.376C12.376,37.364 14.247,35.721 16.423,34.588C18.6,33.454 21.018,32.863 23.472,32.865C25.896,32.863 28.285,33.439 30.441,34.546C32.597,35.652 34.457,37.257 35.869,39.227C32.35,42.162 27.912,43.766 23.331,43.76Z" clip-rule="evenodd" fill-rule="evenodd" fill="#000000"/>
</svg>
