<svg width="26" height="24" viewBox="0 0 26 24" fill="none" xmlns="http://www.w3.org/2000/svg" xmlns:xlink="http://www.w3.org/1999/xlink">
<path d="M0.004,7.238L3.014,7.238L3.014,-0.287L6.024,-0.287L11.171,7.238L18.064,7.238L18.064,-0.287L21.074,-0.287L21.074,7.238L24.084,7.238L24.084,9.746L21.074,9.746L21.074,12.255L24.084,12.255L24.084,14.763L21.074,14.763L21.074,22.288L18.064,22.288L12.902,14.763L6.024,14.763L6.024,22.288L3.014,22.288L3.014,14.763L0.004,14.763L0.004,12.255L3.014,12.255L3.014,9.746L0.004,9.746L0.004,7.238ZM6.024,7.238L7.725,7.238L6.024,4.767L6.024,7.238ZM6.024,9.746L6.024,12.255L11.171,12.255L9.455,9.746L6.024,9.746ZM18.064,17.272L18.064,14.763L16.333,14.763L18.064,17.272ZM12.887,9.746L14.618,12.255L18.064,12.255L18.064,9.746L12.887,9.746Z" fill="#000000"/>
</svg>
