<svg width="46" height="46" viewBox="0 0 46 46" fill="none" xmlns="http://www.w3.org/2000/svg" xmlns:xlink="http://www.w3.org/1999/xlink">
<path d="M45.674,23.293C45.674,10.738 35.485,0.549 22.93,0.549C10.375,0.549 0.186,10.738 0.186,23.293C0.186,34.301 8.01,43.467 18.381,45.583L18.381,30.116L13.832,30.116L13.832,23.293L18.381,23.293L18.381,17.607C18.381,13.217 21.952,9.647 26.342,9.647L32.028,9.647L32.028,16.47L27.479,16.47C26.228,16.47 25.204,17.493 25.204,18.744L25.204,23.293L32.028,23.293L32.028,30.116L25.204,30.116L25.204,45.924C36.69,44.787 45.674,35.097 45.674,23.293Z" fill="#FFFFFF"/>
</svg>
