<svg width="46" height="48" viewBox="0 0 46 48" fill="none" xmlns="http://www.w3.org/2000/svg" xmlns:xlink="http://www.w3.org/1999/xlink">
<path d="M22.354,16.47C20.544,16.47 18.809,17.189 17.529,18.468C16.25,19.748 15.531,21.484 15.531,23.293C15.531,25.103 16.25,26.838 17.529,28.118C18.809,29.398 20.544,30.116 22.354,30.116C24.164,30.116 25.899,29.398 27.179,28.118C28.458,26.838 29.177,25.103 29.177,23.293C29.177,21.484 28.458,19.748 27.179,18.468C25.899,17.189 24.164,16.47 22.354,16.47ZM22.354,11.921C25.37,11.921 28.263,13.119 30.395,15.252C32.528,17.385 33.726,20.277 33.726,23.293C33.726,26.309 32.528,29.202 30.395,31.335C28.263,33.467 25.37,34.665 22.354,34.665C19.338,34.665 16.445,33.467 14.313,31.335C12.18,29.202 10.982,26.309 10.982,23.293C10.982,20.277 12.18,17.385 14.313,15.252C16.445,13.119 19.338,11.921 22.354,11.921ZM37.138,11.352C37.138,12.106 36.838,12.83 36.305,13.363C35.772,13.896 35.049,14.195 34.295,14.195C33.541,14.195 32.818,13.896 32.284,13.363C31.751,12.83 31.452,12.106 31.452,11.352C31.452,10.598 31.751,9.875 32.284,9.342C32.818,8.809 33.541,8.509 34.295,8.509C35.049,8.509 35.772,8.809 36.305,9.342C36.838,9.875 37.138,10.598 37.138,11.352ZM22.354,5.098C16.727,5.098 15.808,5.114 13.19,5.23C11.407,5.314 10.211,5.553 9.101,5.985C8.173,6.327 7.333,6.873 6.645,7.584C5.933,8.272 5.386,9.111 5.043,10.04C4.611,11.155 4.372,12.349 4.29,14.129C4.172,16.64 4.156,17.518 4.156,23.293C4.156,28.922 4.172,29.839 4.288,32.457C4.372,34.238 4.611,35.436 5.041,36.544C5.428,37.533 5.883,38.245 6.638,39C7.404,39.765 8.116,40.222 9.094,40.599C10.218,41.034 11.414,41.275 13.188,41.357C15.699,41.475 16.577,41.489 22.352,41.489C27.981,41.489 28.898,41.473 31.515,41.357C33.294,41.273 34.49,41.034 35.603,40.604C36.531,40.262 37.37,39.715 38.059,39.005C38.826,38.241 39.283,37.529 39.66,36.549C40.092,35.43 40.333,34.233 40.415,32.455C40.534,29.946 40.547,29.066 40.547,23.293C40.547,17.666 40.531,16.747 40.415,14.129C40.331,12.351 40.09,11.15 39.66,10.04C39.318,9.112 38.772,8.272 38.061,7.584C37.373,6.872 36.533,6.325 35.605,5.982C34.49,5.55 33.294,5.311 31.515,5.23C29.007,5.111 28.129,5.098 22.352,5.098M22.352,0.549C28.531,0.549 29.302,0.572 31.729,0.685C34.149,0.799 35.8,1.179 37.249,1.743C38.75,2.321 40.015,3.103 41.28,4.365C42.437,5.502 43.332,6.877 43.902,8.396C44.464,9.844 44.846,11.496 44.96,13.918C45.067,16.343 45.096,17.114 45.096,23.293C45.096,29.473 45.073,30.244 44.96,32.668C44.846,35.093 44.464,36.74 43.902,38.191C43.332,39.709 42.437,41.084 41.28,42.221C40.143,43.378 38.768,44.273 37.249,44.843C35.8,45.405 34.149,45.787 31.729,45.901C29.302,46.008 28.531,46.038 22.352,46.038C16.172,46.038 15.401,46.015 12.974,45.901C10.554,45.787 8.905,45.405 7.454,44.843C5.936,44.273 4.561,43.378 3.424,42.221C2.267,41.084 1.372,39.709 0.802,38.191C0.237,36.742 -0.142,35.091 -0.256,32.668C-0.365,30.244 -0.393,29.473 -0.393,23.293C-0.393,17.114 -0.37,16.343 -0.256,13.918C-0.142,11.493 0.237,9.847 0.802,8.396C1.372,6.877 2.267,5.502 3.424,4.365C4.561,3.208 5.936,2.313 7.454,1.743C8.903,1.179 10.552,0.799 12.974,0.685C15.403,0.578 16.174,0.549 22.354,0.549Z" fill="#FFFFFF"/>
</svg>
