<svg width="64" height="60" viewBox="0 0 64 60" fill="none" xmlns="http://www.w3.org/2000/svg" xmlns:xlink="http://www.w3.org/1999/xlink">
<path d="M-0.379,20.205L7.458,20.205L7.458,0.614L15.294,0.614L28.694,20.205L46.64,20.205L46.64,0.614L54.477,0.614L54.477,20.205L62.313,20.205L62.313,26.735L54.477,26.735L54.477,33.266L62.313,33.266L62.313,39.796L54.477,39.796L54.477,59.388L46.64,59.388L33.2,39.796L15.294,39.796L15.294,59.388L7.458,59.388L7.458,39.796L-0.379,39.796L-0.379,33.266L7.458,33.266L7.458,26.735L-0.379,26.735L-0.379,20.205ZM15.294,20.205L19.722,20.205L15.294,13.773L15.294,20.205ZM15.294,26.735L15.294,33.266L28.694,33.266L24.228,26.735L15.294,26.735ZM46.64,46.327L46.64,39.796L42.134,39.796L46.64,46.327ZM33.161,26.735L37.667,33.266L46.64,33.266L46.64,26.735L33.161,26.735Z" fill="#000000"/>
</svg>
