<svg width="42" height="42" viewBox="0 0 42 42" fill="none" xmlns="http://www.w3.org/2000/svg" xmlns:xlink="http://www.w3.org/1999/xlink">
<path d="M18.329,0.482C15.392,0.482 12.498,1.185 9.888,2.531C7.278,3.877 5.028,5.828 3.326,8.221C1.623,10.613 0.517,13.379 0.1,16.286C-0.316,19.193 -0.032,22.157 0.93,24.932C1.892,27.706 3.504,30.211 5.631,32.236C7.758,34.261 10.338,35.748 13.156,36.573C15.975,37.398 18.95,37.538 21.833,36.979C24.716,36.421 27.424,35.181 29.73,33.363L37.643,41.276C38.051,41.67 38.599,41.889 39.167,41.884C39.735,41.879 40.278,41.651 40.68,41.249C41.082,40.848 41.31,40.304 41.315,39.736C41.319,39.168 41.101,38.621 40.706,38.212L32.794,30.299C34.934,27.584 36.267,24.32 36.64,20.883C37.012,17.445 36.409,13.972 34.9,10.86C33.391,7.749 31.036,5.126 28.106,3.29C25.175,1.455 21.787,0.482 18.329,0.482ZM4.246,18.898C4.246,15.163 5.73,11.581 8.371,8.94C11.012,6.299 14.594,4.815 18.329,4.815C22.064,4.815 25.646,6.299 28.288,8.94C30.929,11.581 32.412,15.163 32.412,18.898C32.412,22.634 30.929,26.216 28.288,28.857C25.646,31.498 22.064,32.982 18.329,32.982C14.594,32.982 11.012,31.498 8.371,28.857C5.73,26.216 4.246,22.634 4.246,18.898Z" clip-rule="evenodd" fill-rule="evenodd" fill="#000000"/>
</svg>
