<svg width="22" height="24" viewBox="0 0 22 24" fill="none" xmlns="http://www.w3.org/2000/svg" xmlns:xlink="http://www.w3.org/1999/xlink">
<path d="M11.125,1.5C11.125,1.202 11.006,0.915 10.795,0.705C10.584,0.494 10.298,0.375 10,0.375C9.701,0.375 9.415,0.494 9.204,0.705C8.993,0.915 8.875,1.202 8.875,1.5L8.875,10.052L1.469,5.776C1.341,5.701 1.2,5.652 1.053,5.632C0.906,5.612 0.756,5.621 0.613,5.659C0.469,5.697 0.335,5.763 0.217,5.853C0.099,5.943 0,6.056 -0.074,6.184C-0.148,6.313 -0.196,6.455 -0.215,6.602C-0.234,6.749 -0.224,6.899 -0.185,7.042C-0.146,7.185 -0.08,7.319 0.011,7.436C0.102,7.554 0.215,7.652 0.344,7.725L7.75,12L0.344,16.275C0.086,16.424 -0.103,16.67 -0.18,16.958C-0.258,17.247 -0.217,17.554 -0.068,17.813C0.081,18.071 0.327,18.26 0.615,18.337C0.904,18.415 1.211,18.374 1.469,18.225L8.875,13.948L8.875,22.5C8.875,22.798 8.993,23.085 9.204,23.295C9.415,23.506 9.701,23.625 10,23.625C10.298,23.625 10.584,23.506 10.795,23.295C11.006,23.085 11.125,22.798 11.125,22.5L11.125,13.948L18.53,18.224C18.789,18.37 19.094,18.409 19.381,18.331C19.668,18.253 19.912,18.065 20.061,17.808C20.209,17.551 20.25,17.245 20.174,16.958C20.098,16.671 19.912,16.425 19.655,16.275L12.25,12L19.655,7.725C19.914,7.576 20.103,7.33 20.18,7.042C20.257,6.753 20.217,6.446 20.068,6.188C19.919,5.929 19.673,5.74 19.385,5.663C19.096,5.585 18.789,5.626 18.53,5.775L11.125,10.052L11.125,1.5Z" clip-rule="evenodd" fill-rule="evenodd" fill="#FF0000"/>
</svg>
