<svg width="60" height="60" viewBox="0 0 60 60" fill="none" xmlns="http://www.w3.org/2000/svg" xmlns:xlink="http://www.w3.org/1999/xlink">
<path d="M6.667,0C4.899,0 3.203,0.702 1.953,1.953C0.702,3.203 0,4.899 0,6.667L0,53.333C0,55.101 0.702,56.797 1.953,58.047C3.203,59.298 4.899,60 6.667,60L53.333,60C55.101,60 56.797,59.298 58.047,58.047C59.298,56.797 60,55.101 60,53.333L60,6.667C60,4.899 59.298,3.203 58.047,1.953C56.797,0.702 55.101,0 53.333,0L6.667,0ZM46.5,22.653C47.125,22.028 47.477,21.18 47.477,20.296C47.478,19.412 47.127,18.564 46.502,17.938C45.877,17.313 45.029,16.961 44.145,16.961C43.26,16.961 42.412,17.312 41.787,17.937L25.287,34.437L18.217,27.367C17.907,27.057 17.54,26.811 17.135,26.644C16.731,26.476 16.297,26.389 15.86,26.389C14.975,26.389 14.127,26.74 13.502,27.365C12.876,27.99 12.525,28.838 12.524,29.722C12.524,30.606 12.875,31.455 13.5,32.08L22.693,41.273C23.034,41.614 23.438,41.884 23.883,42.069C24.328,42.253 24.805,42.348 25.287,42.348C25.768,42.348 26.245,42.253 26.69,42.069C27.135,41.884 27.539,41.614 27.88,41.273L46.5,22.653Z" clip-rule="evenodd" fill-rule="evenodd" fill="#000000"/>
</svg>
