<svg width="52" height="44" viewBox="0 0 52 44" fill="none" xmlns="http://www.w3.org/2000/svg" xmlns:xlink="http://www.w3.org/1999/xlink">
<path d="M17.918,33.027L43.461,33.027C44.314,33.027 45.058,32.327 45.058,31.386C45.058,30.444 44.314,29.744 43.461,29.744L18.29,29.744C17.042,29.744 16.276,28.868 16.079,27.533L15.729,25.235L43.504,25.235C46.7,25.235 48.341,23.265 48.801,20.135L50.552,8.556C50.598,8.281 50.628,8.004 50.64,7.725C50.64,6.675 49.851,5.952 48.648,5.952L12.906,5.952L12.489,3.173C12.271,1.487 11.658,0.632 9.426,0.632L1.742,0.632C0.867,0.632 0.123,1.4 0.123,2.276C0.123,3.173 0.867,3.939 1.743,3.939L9.14,3.939L12.642,27.971C13.103,31.079 14.744,33.027 17.918,33.027ZM46.918,9.257L45.366,19.741C45.19,21.098 44.469,21.93 43.177,21.93L15.249,21.952L13.388,9.257L46.918,9.257ZM19.647,43.665C20.114,43.669 20.577,43.58 21.009,43.403C21.441,43.226 21.833,42.965 22.163,42.635C22.493,42.305 22.754,41.913 22.931,41.481C23.108,41.049 23.197,40.586 23.193,40.119C23.195,39.653 23.105,39.191 22.927,38.76C22.75,38.329 22.489,37.937 22.159,37.607C21.829,37.278 21.438,37.017 21.007,36.839C20.576,36.662 20.114,36.571 19.647,36.573C17.656,36.573 16.08,38.15 16.08,40.119C16.08,42.111 17.656,43.665 19.647,43.665ZM40.112,43.665C42.104,43.665 43.679,42.111 43.679,40.119C43.679,38.149 42.104,36.573 40.112,36.573C38.143,36.573 36.545,38.15 36.545,40.119C36.545,42.111 38.143,43.665 40.112,43.665Z" fill="#000000"/>
</svg>
