<svg width="40" height="36" viewBox="0 0 40 36" fill="none" xmlns="http://www.w3.org/2000/svg" xmlns:xlink="http://www.w3.org/1999/xlink">
<path d="M-0.375,12.001L4.458,12.001L4.458,0.001L9.292,0.001L17.557,12.001L28.625,12.001L28.625,0.001L33.458,0.001L33.458,12.001L38.292,12.001L38.292,16.001L33.458,16.001L33.458,20.001L38.292,20.001L38.292,24.001L33.458,24.001L33.458,36.001L28.625,36.001L20.336,24.001L9.292,24.001L9.292,36.001L4.458,36.001L4.458,24.001L-0.375,24.001L-0.375,20.001L4.458,20.001L4.458,16.001L-0.375,16.001L-0.375,12.001ZM9.292,12.001L12.022,12.001L9.292,8.061L9.292,12.001ZM9.292,16.001L9.292,20.001L17.557,20.001L14.802,16.001L9.292,16.001ZM28.625,28.001L28.625,24.001L25.846,24.001L28.625,28.001ZM20.312,16.001L23.091,20.001L28.625,20.001L28.625,16.001L20.312,16.001Z" fill="#000000"/>
</svg>
